M48
; DRILL file {KiCad 9.0.3} date 2026-03-30T23:42:24-0500
; FORMAT={-:-/ absolute / inch / decimal}
; #@! TF.CreationDate,2026-03-30T23:42:24-05:00
; #@! TF.GenerationSoftware,Kicad,Pcbnew,9.0.3
; #@! TF.FileFunction,Plated,1,2,PTH
FMAT,2
INCH
; #@! TA.AperFunction,Plated,PTH,ViaDrill
T1C0.0118
; #@! TA.AperFunction,Plated,PTH,ViaDrill
T2C0.0157
; #@! TA.AperFunction,Plated,PTH,ComponentDrill
T3C0.0276
; #@! TA.AperFunction,Plated,PTH,ComponentDrill
T4C0.0295
; #@! TA.AperFunction,Plated,PTH,ComponentDrill
T5C0.0315
; #@! TA.AperFunction,Plated,PTH,ComponentDrill
T6C0.0350
; #@! TA.AperFunction,Plated,PTH,ComponentDrill
T7C0.0354
; #@! TA.AperFunction,Plated,PTH,ComponentDrill
T8C0.0394
; #@! TA.AperFunction,Plated,PTH,ComponentDrill
T9C0.0433
; #@! TA.AperFunction,Plated,PTH,ComponentDrill
T10C0.0500
; #@! TA.AperFunction,Plated,PTH,ComponentDrill
T11C0.0508
; #@! TA.AperFunction,Plated,PTH,ComponentDrill
T12C0.0600
; #@! TA.AperFunction,Plated,PTH,ComponentDrill
T13C0.0630
; #@! TA.AperFunction,Plated,PTH,ComponentDrill
T14C0.1250
%
G90
G05
T1
X4.1378Y-3.5709
X4.1398Y-3.6949
X4.1614Y-3.372
X4.1634Y-3.2638
X4.185Y-4.3858
X4.2303Y-4.4862
X4.252Y-3.2638
X4.252Y-3.3543
X4.252Y-3.5551
X4.252Y-3.6909
X4.7933Y-3.872
X4.7933Y-3.937
X5.0769Y-4.8952
X5.4685Y-4.0591
X5.5699Y-3.6959
X5.5728Y-4.0591
X5.6437Y-3.7697
X5.6732Y-4.4793
X5.6801Y-4.5768
X5.7087Y-4.6024
X6.0354Y-4.4843
X6.185Y-4.4508
X6.2205Y-4.794
X6.2205Y-4.8412
X6.4547Y-4.4311
X6.4902Y-4.4528
X6.4969Y-4.8177
X6.565Y-4.4528
X6.6329Y-4.4754
T2
X4.6Y-3.4508
X5.4587Y-3.8484
X5.5965Y-3.8484
X5.9435Y-4.4994
X6.1988Y-3.2303
X6.2874Y-3.2323
X6.299Y-3.5469
X6.2992Y-3.4665
X6.7106Y-2.4291
T3
X5.065Y-5.1483
X5.065Y-5.4483
X5.1517Y-5.1483
X5.1517Y-5.4483
X5.3024Y-4.302
X5.3024Y-4.602
X5.4996Y-3.126
X5.5323Y-2.7321
X5.5323Y-3.0321
X5.5415Y-5.1479
X5.5415Y-5.4479
X5.6294Y-5.1479
X5.6294Y-5.4479
X5.7996Y-3.126
X6.1452Y-2.9392
X6.1452Y-3.0298
X6.2035Y-2.8444
X6.2615Y-4.7008
X6.2615Y-5.0008
X6.2639Y-4.2331
X6.2643Y-4.3189
X6.2643Y-4.6189
X6.2988Y-3.8839
X6.4452Y-2.9392
X6.4452Y-3.0298
X6.5035Y-2.8444
X6.5037Y-3.4993
X6.5037Y-3.7993
X6.5038Y-3.1156
X6.5038Y-3.4156
X6.5639Y-4.2331
X6.5944Y-3.1156
X6.5944Y-3.4156
X6.5944Y-3.4993
X6.5944Y-3.7993
X6.598Y-2.8444
X6.5988Y-3.8839
X6.6417Y-4.7579
X6.7579Y-4.8441
X6.7579Y-5.1441
X6.8445Y-4.8441
X6.8445Y-5.1441
X6.898Y-2.8444
X6.9302Y-4.8441
X6.9302Y-5.1441
X6.9417Y-4.7579
X6.9881Y-2.5487
X6.9881Y-2.8487
T4
X5.7159Y-3.9882
X6.0159Y-3.9882
T5
X4.5545Y-3.6513
X4.5545Y-3.8513
X4.5888Y-5.4285
X4.728Y-5.2893
X4.832Y-2.3701
X4.9471Y-5.2411
X4.9471Y-5.4411
X4.9712Y-2.5093
X5.0876Y-4.7415
X5.0906Y-4.1563
X5.1864Y-2.2931
X5.1864Y-2.4931
X5.2452Y-5.071
X5.2452Y-4.9239
X5.2727Y-5.2359
X5.2727Y-5.4359
X5.2876Y-4.7415
X5.2906Y-4.1563
X5.3372Y-2.4321
X5.3372Y-2.6321
X5.3907Y-4.1567
X5.4223Y-5.2359
X5.4223Y-5.4359
X5.4452Y-5.071
X5.4452Y-4.9239
X5.4676Y-2.4541
X5.5907Y-4.1567
X5.6676Y-2.4541
X5.7274Y-4.1077
X5.7506Y-4.2334
X5.7506Y-4.4334
X5.8963Y-4.2331
X5.8963Y-4.4331
X5.9274Y-4.1077
X6.0101Y-2.5701
X6.0101Y-2.7701
X6.055Y-3.2481
X6.055Y-3.4481
X6.076Y-3.5416
X6.076Y-3.7416
X6.1957Y-3.1479
X6.1984Y-3.6965
X6.1984Y-3.5495
X6.3513Y-4.6556
X6.385Y-4.3345
X6.385Y-4.5345
X6.3957Y-3.1479
X6.3984Y-3.6965
X6.3984Y-3.5495
X6.4102Y-5.1116
X6.5306Y-4.3345
X6.5306Y-4.5345
X6.5512Y-4.6556
X6.6102Y-5.1116
X6.6582Y-4.1943
X6.6702Y-4.3346
X6.6702Y-4.6346
X6.6864Y-2.7013
X6.6898Y-3.3965
X6.6956Y-2.3536
X6.7445Y-5.2553
X6.7702Y-4.3346
X6.7702Y-4.6346
X6.8445Y-5.2553
X6.8582Y-4.1943
X6.8584Y-2.9973
X6.8584Y-3.1942
X6.8702Y-4.6346
X6.8702Y-4.3346
X6.8864Y-2.7013
X6.8898Y-3.3965
X6.8956Y-2.3536
X6.9445Y-5.2553
X6.9702Y-4.3346
X6.9702Y-4.6346
X7.0148Y-3.3288
X7.0148Y-3.5288
X7.0148Y-3.6342
X7.0148Y-3.8342
T6
X4.3175Y-4.2323
X4.3175Y-4.3323
X4.3175Y-4.4323
X4.3175Y-4.5323
X4.3175Y-4.6323
X4.3175Y-4.7323
X4.3175Y-4.8323
X4.3175Y-4.9323
X4.3175Y-5.0323
X4.3175Y-5.1323
X4.4175Y-4.2323
X4.4175Y-4.3323
X4.4175Y-4.4323
X4.4175Y-4.5323
X4.4175Y-4.6323
X4.4175Y-4.7323
X4.4175Y-4.8323
X4.4175Y-4.9323
X4.4175Y-5.0323
X4.4175Y-5.1323
X6.0175Y-4.2323
X6.0175Y-4.3323
X6.0175Y-4.4323
X6.0175Y-4.5323
X6.0175Y-4.6323
X6.0175Y-4.7323
X6.0175Y-4.8323
X6.0175Y-4.9323
X6.0175Y-5.0323
X6.0175Y-5.1323
X6.1175Y-4.2323
X6.1175Y-4.3323
X6.1175Y-4.4323
X6.1175Y-4.5323
X6.1175Y-4.6323
X6.1175Y-4.7323
X6.1175Y-4.8323
X6.1175Y-4.9323
X6.1175Y-5.0323
X6.1175Y-5.1323
T7
X5.7087Y-2.8931
X5.7087Y-2.9931
X5.9236Y-3.0354
X6.0236Y-3.0354
X6.4764Y-4.0098
X6.4764Y-4.1098
T8
X4.4075Y-2.9323
X4.4075Y-3.0323
X4.4075Y-3.1323
X4.4075Y-3.2323
X4.4075Y-3.3323
X4.4075Y-3.4323
X4.4075Y-3.5323
X4.4075Y-3.6323
X4.4075Y-3.7323
X4.4075Y-3.8323
X4.7146Y-4.3701
X4.9429Y-4.3701
X4.9485Y-4.9161
X4.9485Y-5.0161
X4.9485Y-5.1161
X4.9567Y-5.563
X5.0567Y-5.563
X5.1567Y-5.563
X5.2567Y-5.563
X5.3165Y-2.3031
X5.4074Y-5.563
X5.4165Y-2.3031
X5.4232Y-4.3024
X5.4232Y-4.4024
X5.4232Y-4.5024
X5.4232Y-4.6024
X5.4921Y-3.3478
X5.4921Y-3.4478
X5.5074Y-5.563
X5.5165Y-2.3031
X5.5232Y-4.3024
X5.5232Y-4.4024
X5.5232Y-4.5024
X5.5232Y-4.6024
X5.6074Y-5.563
X5.6165Y-2.3031
X5.7074Y-5.563
X5.7165Y-2.3031
X5.8583Y-2.6004
X5.8583Y-2.7004
X5.8943Y-4.9317
X5.8943Y-5.0317
X5.8943Y-5.1317
X6.2852Y-5.1122
X6.5745Y-2.9847
X6.6378Y-4.8705
X6.6378Y-4.9705
X6.9741Y-4.1969
X7.0148Y-3.9505
X7.0148Y-4.0505
T9
X4.9705Y-2.935
X4.9705Y-3.1909
X4.9705Y-3.7224
X4.9705Y-3.9783
X4.9705Y-3.3327
X4.9705Y-3.5886
X5.1476Y-2.935
X5.1476Y-3.7224
X5.1476Y-3.1909
X5.1476Y-3.3327
X5.1476Y-3.9783
X5.1476Y-3.5886
T10
X5.4575Y-3.6772
X5.6575Y-3.6772
X5.7559Y-3.6772
X5.8685Y-2.303
X5.9559Y-3.6772
X6.0099Y-2.4444
T11
X5.1804Y-4.3492
X5.1804Y-4.4492
X5.1804Y-4.5492
T12
X6.2655Y-5.2992
X6.4623Y-5.4961
X6.6592Y-5.2992
T13
X6.7258Y-3.6013
X6.7258Y-3.9918
X6.8597Y-3.6013
X6.8597Y-3.9918
T14
X4.0472Y-2.3622
X4.0472Y-5.4945
X7.0591Y-2.3622
X7.0591Y-5.4945
M30
