%TF.GenerationSoftware,KiCad,Pcbnew,9.0.3*%
%TF.CreationDate,2026-03-30T23:42:26-05:00*%
%TF.ProjectId,ECE445L_Lab7,45434534-3435-44c5-9f4c-6162372e6b69,v1.0.0*%
%TF.SameCoordinates,Original*%
%TF.FileFunction,Copper,L1,Top*%
%TF.FilePolarity,Positive*%
%FSLAX46Y46*%
G04 Gerber Fmt 4.6, Leading zero omitted, Abs format (unit mm)*
G04 Created by KiCad (PCBNEW 9.0.3) date 2026-03-30 23:42:26*
%MOMM*%
%LPD*%
G01*
G04 APERTURE LIST*
G04 Aperture macros list*
%AMRoundRect*
0 Rectangle with rounded corners*
0 $1 Rounding radius*
0 $2 $3 $4 $5 $6 $7 $8 $9 X,Y pos of 4 corners*
0 Add a 4 corners polygon primitive as box body*
4,1,4,$2,$3,$4,$5,$6,$7,$8,$9,$2,$3,0*
0 Add four circle primitives for the rounded corners*
1,1,$1+$1,$2,$3*
1,1,$1+$1,$4,$5*
1,1,$1+$1,$6,$7*
1,1,$1+$1,$8,$9*
0 Add four rect primitives between the rounded corners*
20,1,$1+$1,$2,$3,$4,$5,0*
20,1,$1+$1,$4,$5,$6,$7,0*
20,1,$1+$1,$6,$7,$8,$9,0*
20,1,$1+$1,$8,$9,$2,$3,0*%
%AMRotRect*
0 Rectangle, with rotation*
0 The origin of the aperture is its center*
0 $1 length*
0 $2 width*
0 $3 Rotation angle, in degrees counterclockwise*
0 Add horizontal line*
21,1,$1,$2,0,0,$3*%
G04 Aperture macros list end*
%TA.AperFunction,ComponentPad*%
%ADD10C,4.318000*%
%TD*%
%TA.AperFunction,ComponentPad*%
%ADD11C,2.286000*%
%TD*%
%TA.AperFunction,ComponentPad*%
%ADD12C,1.600000*%
%TD*%
%TA.AperFunction,ComponentPad*%
%ADD13O,1.600000X1.600000*%
%TD*%
%TA.AperFunction,ComponentPad*%
%ADD14R,1.700000X1.700000*%
%TD*%
%TA.AperFunction,ComponentPad*%
%ADD15O,1.700000X1.700000*%
%TD*%
%TA.AperFunction,SMDPad,CuDef*%
%ADD16R,0.279400X0.965200*%
%TD*%
%TA.AperFunction,ComponentPad*%
%ADD17C,1.400000*%
%TD*%
%TA.AperFunction,ComponentPad*%
%ADD18O,1.400000X1.400000*%
%TD*%
%TA.AperFunction,ComponentPad*%
%ADD19C,1.700000*%
%TD*%
%TA.AperFunction,ComponentPad*%
%ADD20R,1.600000X2.400000*%
%TD*%
%TA.AperFunction,ComponentPad*%
%ADD21O,1.600000X2.400000*%
%TD*%
%TA.AperFunction,ComponentPad*%
%ADD22R,2.032000X2.032000*%
%TD*%
%TA.AperFunction,ComponentPad*%
%ADD23C,2.032000*%
%TD*%
%TA.AperFunction,ComponentPad*%
%ADD24RoundRect,0.250001X-0.499999X-0.499999X0.499999X-0.499999X0.499999X0.499999X-0.499999X0.499999X0*%
%TD*%
%TA.AperFunction,ComponentPad*%
%ADD25C,1.500000*%
%TD*%
%TA.AperFunction,SMDPad,CuDef*%
%ADD26R,0.650000X1.525000*%
%TD*%
%TA.AperFunction,ComponentPad*%
%ADD27R,1.800000X1.800000*%
%TD*%
%TA.AperFunction,ComponentPad*%
%ADD28C,1.800000*%
%TD*%
%TA.AperFunction,SMDPad,CuDef*%
%ADD29R,1.750000X3.000000*%
%TD*%
%TA.AperFunction,ComponentPad*%
%ADD30C,2.000000*%
%TD*%
%TA.AperFunction,SMDPad,CuDef*%
%ADD31RoundRect,0.162500X0.837500X0.162500X-0.837500X0.162500X-0.837500X-0.162500X0.837500X-0.162500X0*%
%TD*%
%TA.AperFunction,ComponentPad*%
%ADD32C,2.400000*%
%TD*%
%TA.AperFunction,ComponentPad*%
%ADD33R,1.935000X1.935000*%
%TD*%
%TA.AperFunction,ComponentPad*%
%ADD34C,1.935000*%
%TD*%
%TA.AperFunction,SMDPad,CuDef*%
%ADD35R,3.403600X5.003800*%
%TD*%
%TA.AperFunction,SMDPad,CuDef*%
%ADD36R,1.910000X0.610000*%
%TD*%
%TA.AperFunction,SMDPad,CuDef*%
%ADD37R,1.205000X1.550000*%
%TD*%
%TA.AperFunction,ComponentPad*%
%ADD38RotRect,2.032000X2.032000X135.000000*%
%TD*%
%TA.AperFunction,ComponentPad*%
%ADD39R,1.520000X1.520000*%
%TD*%
%TA.AperFunction,ComponentPad*%
%ADD40C,1.520000*%
%TD*%
%TA.AperFunction,ViaPad*%
%ADD41C,0.800000*%
%TD*%
%TA.AperFunction,ViaPad*%
%ADD42C,0.450000*%
%TD*%
%TA.AperFunction,Conductor*%
%ADD43C,1.600000*%
%TD*%
%TA.AperFunction,Conductor*%
%ADD44C,0.500000*%
%TD*%
%TA.AperFunction,Conductor*%
%ADD45C,0.250000*%
%TD*%
%TA.AperFunction,Conductor*%
%ADD46C,0.300000*%
%TD*%
%TA.AperFunction,Conductor*%
%ADD47C,0.200000*%
%TD*%
G04 APERTURE END LIST*
D10*
%TO.P,H1,1,Hole*%
%TO.N,unconnected-(H1-Hole-Pad1)*%
X102800000Y-60000000D03*
%TD*%
D11*
%TO.P,J5,R,ring*%
%TO.N,/Lab7_Output/VO2*%
X159143000Y-134600000D03*
%TO.P,J5,S,sleeve*%
%TO.N,/Lab7_Output/VO1*%
X164143000Y-139600000D03*
%TO.P,J5,T,tip*%
%TO.N,/Lab7_Output/VO2*%
X169143000Y-134600000D03*
%TD*%
D12*
%TO.P,C25,1*%
%TO.N,GND*%
X131735000Y-58243750D03*
D13*
%TO.P,C25,2*%
%TO.N,+12V*%
X131735000Y-63323749D03*
%TD*%
D12*
%TO.P,C3,1*%
%TO.N,+15V*%
X154329732Y-89956233D03*
D13*
%TO.P,C3,2*%
%TO.N,GND*%
X154329732Y-95036232D03*
%TD*%
D14*
%TO.P,J2,1,Pin_1*%
%TO.N,Net-(J2-Pin_1)*%
X178175000Y-102882143D03*
D15*
%TO.P,J2,2,Pin_2*%
%TO.N,GND*%
X178175000Y-100342143D03*
%TD*%
D14*
%TO.P,J9,1,Pin_1*%
%TO.N,+5V*%
X139500000Y-87575000D03*
D15*
%TO.P,J9,2,Pin_2*%
%TO.N,GND*%
X139500000Y-85035000D03*
%TD*%
D16*
%TO.P,U6,1,VCCA*%
%TO.N,+3V3*%
X130452232Y-125214968D03*
%TO.P,U6,2,1A*%
%TO.N,/PB7*%
X129952231Y-125214968D03*
%TO.P,U6,3,2A*%
%TO.N,/PB4*%
X129452231Y-125214968D03*
%TO.P,U6,4,GND*%
%TO.N,GND*%
X128952230Y-125214968D03*
%TO.P,U6,5,DIR*%
%TO.N,Net-(JP1-C)*%
X128952230Y-128567768D03*
%TO.P,U6,6,2B*%
%TO.N,Net-(U6-2B)*%
X129452231Y-128567768D03*
%TO.P,U6,7,1B*%
%TO.N,Net-(U6-1B)*%
X129952231Y-128567768D03*
%TO.P,U6,8,VCCB*%
%TO.N,+5V*%
X130452232Y-128567768D03*
%TD*%
D12*
%TO.P,C39,1*%
%TO.N,GND*%
X150556250Y-104335000D03*
D13*
%TO.P,C39,2*%
%TO.N,Net-(D1-K)*%
X145476251Y-104335000D03*
%TD*%
D12*
%TO.P,C6,1*%
%TO.N,Net-(U2-CB)*%
X169835632Y-68612300D03*
D13*
%TO.P,C6,2*%
%TO.N,Net-(U2-SW)*%
X174915631Y-68612300D03*
%TD*%
D17*
%TO.P,R12,1*%
%TO.N,+1V5*%
X176026999Y-130660000D03*
D18*
%TO.P,R12,2*%
%TO.N,Net-(IC2-Pad1)*%
X176026999Y-123040000D03*
%TD*%
D12*
%TO.P,C22,1*%
%TO.N,GND*%
X138308481Y-128802768D03*
D13*
%TO.P,C22,2*%
%TO.N,+5V*%
X133228482Y-128802768D03*
%TD*%
D12*
%TO.P,C14,1*%
%TO.N,+5V*%
X129225000Y-120435000D03*
D13*
%TO.P,C14,2*%
%TO.N,GND*%
X134304999Y-120435000D03*
%TD*%
D17*
%TO.P,R7,1*%
%TO.N,/Lab7_power/123.9k*%
X165197232Y-86756233D03*
D18*
%TO.P,R7,2*%
%TO.N,GND*%
X165197232Y-79136233D03*
%TD*%
D12*
%TO.P,C13,1*%
%TO.N,/Lab7_wifi/WIFI_3V3*%
X129301251Y-105570000D03*
D13*
%TO.P,C13,2*%
%TO.N,GND*%
X134381250Y-105570000D03*
%TD*%
D17*
%TO.P,R6,1*%
%TO.N,Net-(R5-Pad2)*%
X167588780Y-72247299D03*
D18*
%TO.P,R6,2*%
%TO.N,/Lab7_power/140k*%
X175208780Y-72247299D03*
%TD*%
D12*
%TO.P,C12,1*%
%TO.N,/Lab7_wifi/WIFI_3V3*%
X136925002Y-105580000D03*
D13*
%TO.P,C12,2*%
%TO.N,GND*%
X142005001Y-105580000D03*
%TD*%
D19*
%TO.P,U4,1,RxD*%
%TO.N,/PE5*%
X140290000Y-116900000D03*
%TO.P,U4,2,GPIO0*%
%TO.N,/Lab7_wifi/WIFI_3V3*%
X140290000Y-114360000D03*
%TO.P,U4,3,GPIO2*%
%TO.N,/PE0*%
X140290000Y-111820000D03*
%TO.P,U4,4,GND*%
%TO.N,GND*%
X140290000Y-109280000D03*
D14*
%TO.P,U4,5,TxD*%
%TO.N,/PE4*%
X137750000Y-109280000D03*
D19*
%TO.P,U4,6,Ch_PD*%
%TO.N,Net-(U4-Ch_PD)*%
X137750000Y-111820000D03*
%TO.P,U4,7,Reset*%
%TO.N,/PE1*%
X137750000Y-114359999D03*
%TO.P,U4,8,Vcc*%
%TO.N,/Lab7_wifi/WIFI_3V3*%
X137750000Y-116900000D03*
%TD*%
D12*
%TO.P,C35,1*%
%TO.N,GND*%
X146065000Y-112607500D03*
D13*
%TO.P,C35,2*%
%TO.N,Net-(D1-K)*%
X146065000Y-107527501D03*
%TD*%
D10*
%TO.P,H2,1,Hole*%
%TO.N,unconnected-(H2-Hole-Pad1)*%
X179300000Y-60000000D03*
%TD*%
D20*
%TO.P,IC3,1,DIN*%
%TO.N,/PD3*%
X169423000Y-117720001D03*
D21*
%TO.P,IC3,2,SCLK*%
%TO.N,/PD0*%
X171963000Y-117720001D03*
%TO.P,IC3,3,~{CS}*%
%TO.N,GND*%
X174502999Y-117720001D03*
%TO.P,IC3,4,FS*%
%TO.N,/PD1*%
X177043000Y-117720001D03*
%TO.P,IC3,5,AGND*%
%TO.N,GND*%
X177043000Y-110100001D03*
%TO.P,IC3,6,REF*%
%TO.N,+1V5*%
X174503000Y-110100001D03*
%TO.P,IC3,7,OUT*%
%TO.N,Net-(IC3-OUT)*%
X171963000Y-110100001D03*
%TO.P,IC3,8,VDD*%
%TO.N,+3V3*%
X169423000Y-110100001D03*
%TD*%
D14*
%TO.P,J8,1,Pin_1*%
%TO.N,+12V*%
X148800000Y-66050826D03*
D15*
%TO.P,J8,2,Pin_2*%
%TO.N,GND*%
X148800000Y-68590826D03*
%TD*%
D22*
%TO.P,C10,1*%
%TO.N,+5V*%
X146200000Y-93400000D03*
D23*
%TO.P,C10,2*%
%TO.N,GND*%
X151280000Y-93400000D03*
%TD*%
D24*
%TO.P,D1,1,K*%
%TO.N,Net-(D1-K)*%
X145185001Y-101300000D03*
D25*
%TO.P,D1,2,A*%
%TO.N,+5V*%
X152805001Y-101300000D03*
%TD*%
D17*
%TO.P,R17,1*%
%TO.N,/Lab7_Output/VO1*%
X159043001Y-127020001D03*
D18*
%TO.P,R17,2*%
%TO.N,Net-(IC4--IN)*%
X159043001Y-119400001D03*
%TD*%
D12*
%TO.P,C30,1*%
%TO.N,GND*%
X135565000Y-66856250D03*
D13*
%TO.P,C30,2*%
%TO.N,+12V*%
X135565000Y-61776251D03*
%TD*%
D26*
%TO.P,IC4,1,~{SHUTDOWN}*%
%TO.N,Net-(IC4-~{SHUTDOWN})*%
X165883001Y-121176001D03*
%TO.P,IC4,2,BYPASS*%
%TO.N,Net-(IC4-+IN)*%
X164613001Y-121176001D03*
%TO.P,IC4,3,+IN*%
X163343001Y-121176001D03*
%TO.P,IC4,4,-IN*%
%TO.N,Net-(IC4--IN)*%
X162073001Y-121176001D03*
%TO.P,IC4,5,VO_1*%
%TO.N,/Lab7_Output/VO1*%
X162073001Y-126600001D03*
%TO.P,IC4,6,VDD*%
%TO.N,+5V*%
X163343001Y-126600001D03*
%TO.P,IC4,7,GND*%
%TO.N,GND*%
X164613001Y-126600001D03*
%TO.P,IC4,8,VO2*%
%TO.N,/Lab7_Output/VO2*%
X165883001Y-126600001D03*
%TD*%
D14*
%TO.P,J7,1,Pin_1*%
%TO.N,+5V*%
X137347233Y-141299999D03*
D15*
%TO.P,J7,2,Pin_2*%
%TO.N,Net-(J7-Pin_2)*%
X139887233Y-141299999D03*
%TO.P,J7,3,Pin_3*%
%TO.N,Net-(J7-Pin_3)*%
X142427232Y-141299999D03*
%TO.P,J7,4,Pin_4*%
%TO.N,GND*%
X144967233Y-141299999D03*
%TD*%
D14*
%TO.P,J4,1,Pin_1*%
%TO.N,/PC6*%
X145200000Y-58500000D03*
D15*
%TO.P,J4,2,Pin_2*%
%TO.N,/PC5*%
X142660000Y-58500000D03*
%TO.P,J4,3,Pin_3*%
%TO.N,/PC4*%
X140120001Y-58500000D03*
%TO.P,J4,4,Pin_4*%
%TO.N,+12V*%
X137580000Y-58500000D03*
%TO.P,J4,5,Pin_5*%
%TO.N,GND*%
X135040000Y-58500000D03*
%TD*%
D27*
%TO.P,D3,1,K*%
%TO.N,GND*%
X153000000Y-77100000D03*
D28*
%TO.P,D3,2,A*%
%TO.N,Net-(D3-A)*%
X150460000Y-77100000D03*
%TD*%
D12*
%TO.P,C18,1*%
%TO.N,GND*%
X162178001Y-115176251D03*
D13*
%TO.P,C18,2*%
%TO.N,Net-(C18-Pad2)*%
X162178001Y-110096252D03*
%TD*%
D17*
%TO.P,R2,1*%
%TO.N,Net-(U3-EN)*%
X167497232Y-88881233D03*
D18*
%TO.P,R2,2*%
%TO.N,GND*%
X167497232Y-96501233D03*
%TD*%
D12*
%TO.P,C28,1*%
%TO.N,GND*%
X133927232Y-132992518D03*
D13*
%TO.P,C28,2*%
%TO.N,+5V*%
X133927232Y-138072517D03*
%TD*%
D29*
%TO.P,L2,1,1*%
%TO.N,Net-(U3-SW)*%
X150597232Y-85056233D03*
%TO.P,L2,2,2*%
%TO.N,+5V*%
X143847234Y-85056233D03*
%TD*%
D10*
%TO.P,H3,1,Hole*%
%TO.N,unconnected-(H3-Hole-Pad1)*%
X102800000Y-139560000D03*
%TD*%
D12*
%TO.P,C21,1*%
%TO.N,GND*%
X138308482Y-125067769D03*
D13*
%TO.P,C21,2*%
%TO.N,+3V3*%
X133228483Y-125067769D03*
%TD*%
D17*
%TO.P,R19,1*%
%TO.N,Net-(U6-2B)*%
X128652233Y-130767768D03*
D18*
%TO.P,R19,2*%
%TO.N,Net-(J3-Pin_3)*%
X128652233Y-138387768D03*
%TD*%
D14*
%TO.P,J1,1,Pin_1*%
%TO.N,+3V3*%
X149715000Y-125265000D03*
D15*
%TO.P,J1,2,Pin_2*%
%TO.N,/PE3*%
X149715000Y-127805000D03*
%TO.P,J1,3,Pin_3*%
%TO.N,GND*%
X149715000Y-130344999D03*
%TD*%
D17*
%TO.P,R8,1*%
%TO.N,+5V*%
X156087232Y-74656234D03*
D18*
%TO.P,R8,2*%
%TO.N,Net-(R8-Pad2)*%
X163707232Y-74656234D03*
%TD*%
D27*
%TO.P,D4,1,K*%
%TO.N,GND*%
X164500000Y-104390000D03*
D28*
%TO.P,D4,2,A*%
%TO.N,Net-(D4-A)*%
X164500000Y-101850000D03*
%TD*%
D17*
%TO.P,R24,1*%
%TO.N,+15V*%
X159990000Y-98650000D03*
D18*
%TO.P,R24,2*%
%TO.N,Net-(D4-A)*%
X167610000Y-98650000D03*
%TD*%
D30*
%TO.P,SW1,1,1*%
%TO.N,GND*%
X126249998Y-81050002D03*
X126249998Y-74550002D03*
%TO.P,SW1,2,2*%
%TO.N,/PB1*%
X130749999Y-81050002D03*
X130749998Y-74550001D03*
%TD*%
D17*
%TO.P,R20,1*%
%TO.N,+12V*%
X140521220Y-69394353D03*
D18*
%TO.P,R20,2*%
%TO.N,Net-(D2-A)*%
X140521220Y-77014353D03*
%TD*%
D12*
%TO.P,C36,1*%
%TO.N,+5V*%
X120092232Y-134348768D03*
%TO.P,C36,2*%
%TO.N,GND*%
X116556698Y-137884302D03*
%TD*%
D17*
%TO.P,R11,1*%
%TO.N,+3V3*%
X171650000Y-123040000D03*
D18*
%TO.P,R11,2*%
%TO.N,+1V5*%
X171650000Y-130660000D03*
%TD*%
D31*
%TO.P,U2,1,FB*%
%TO.N,/Lab7_power/140k*%
X174101882Y-65082300D03*
%TO.P,U2,2,EN*%
%TO.N,+15V*%
X174101883Y-64132300D03*
%TO.P,U2,3,VIN*%
X174101882Y-63182300D03*
%TO.P,U2,4,GND*%
%TO.N,GND*%
X170681882Y-63182300D03*
%TO.P,U2,5,SW*%
%TO.N,Net-(U2-SW)*%
X170681881Y-64132300D03*
%TO.P,U2,6,CB*%
%TO.N,Net-(U2-CB)*%
X170681882Y-65082300D03*
%TD*%
D12*
%TO.P,C23,1*%
%TO.N,GND*%
X143956250Y-62335000D03*
D13*
%TO.P,C23,2*%
%TO.N,+12V*%
X138876251Y-62335000D03*
%TD*%
D17*
%TO.P,R1,1*%
%TO.N,Net-(U3-EN)*%
X165194732Y-88881233D03*
D18*
%TO.P,R1,2*%
%TO.N,+15V*%
X165194732Y-96501233D03*
%TD*%
D12*
%TO.P,C5,1*%
%TO.N,Net-(U3-VREG5)*%
X162450982Y-79956233D03*
D13*
%TO.P,C5,2*%
%TO.N,GND*%
X157370983Y-79956233D03*
%TD*%
D12*
%TO.P,C4,1*%
%TO.N,+15V*%
X157438483Y-90156233D03*
D13*
%TO.P,C4,2*%
%TO.N,GND*%
X162518482Y-90156233D03*
%TD*%
D17*
%TO.P,R15,1*%
%TO.N,Net-(C18-Pad2)*%
X159113001Y-109700001D03*
D18*
%TO.P,R15,2*%
%TO.N,Net-(IC4--IN)*%
X159113001Y-117320001D03*
%TD*%
D12*
%TO.P,C7,1*%
%TO.N,+12V*%
X152656881Y-65281048D03*
D13*
%TO.P,C7,2*%
%TO.N,GND*%
X152656881Y-70361047D03*
%TD*%
D32*
%TO.P,F2,1*%
%TO.N,Net-(J2-Pin_1)*%
X170836251Y-101392143D03*
%TO.P,F2,2*%
%TO.N,+15V*%
X170836251Y-91472143D03*
%TO.P,F2,3*%
%TO.N,Net-(J2-Pin_1)*%
X174236251Y-101392143D03*
%TO.P,F2,4*%
%TO.N,+15V*%
X174236251Y-91472143D03*
%TD*%
D12*
%TO.P,C34,1*%
%TO.N,GND*%
X178176251Y-84552144D03*
D13*
%TO.P,C34,2*%
%TO.N,+15V*%
X178176251Y-89632143D03*
%TD*%
D17*
%TO.P,R23,1*%
%TO.N,/PB4*%
X142987233Y-130757768D03*
D18*
%TO.P,R23,2*%
%TO.N,Net-(J7-Pin_3)*%
X142987233Y-138377768D03*
%TD*%
D12*
%TO.P,C15,1*%
%TO.N,+3V3*%
X115685000Y-92743750D03*
D13*
%TO.P,C15,2*%
%TO.N,GND*%
X115685000Y-97823749D03*
%TD*%
D12*
%TO.P,C20,1*%
%TO.N,GND*%
X167899249Y-129835002D03*
D13*
%TO.P,C20,2*%
%TO.N,+5V*%
X162819250Y-129835002D03*
%TD*%
D17*
%TO.P,R14,1*%
%TO.N,Net-(C17-Pad2)*%
X166723001Y-107520001D03*
D18*
%TO.P,R14,2*%
%TO.N,Net-(C18-Pad2)*%
X159103001Y-107520001D03*
%TD*%
D14*
%TO.P,JP1,1,A*%
%TO.N,+3V3*%
X125692232Y-124868769D03*
D19*
%TO.P,JP1,2,C*%
%TO.N,Net-(JP1-C)*%
X125692232Y-127408769D03*
%TO.P,JP1,3,B*%
%TO.N,GND*%
X125692232Y-129948768D03*
%TD*%
D14*
%TO.P,U5,1,GND*%
%TO.N,GND*%
X111949999Y-97340003D03*
D19*
%TO.P,U5,2,VCC*%
%TO.N,+3V3*%
X111949999Y-94800003D03*
%TO.P,U5,3,RESET*%
%TO.N,/PA7*%
X111949999Y-92260004D03*
%TO.P,U5,4,D/C*%
%TO.N,/PA6*%
X111949999Y-89720003D03*
%TO.P,U5,5,CARD_CS*%
%TO.N,/PB0*%
X111949999Y-87180003D03*
%TO.P,U5,6,TFT_CS*%
%TO.N,/PA3*%
X111949999Y-84640003D03*
%TO.P,U5,7,MOSI*%
%TO.N,/PA5*%
X111949999Y-82100003D03*
%TO.P,U5,8,SCK*%
%TO.N,/PA2*%
X111949999Y-79560002D03*
%TO.P,U5,9,MISO*%
%TO.N,/PA4*%
X111949999Y-77020003D03*
%TO.P,U5,10,LITE*%
%TO.N,+3V3*%
X111949999Y-74480003D03*
%TD*%
D14*
%TO.P,TP7,1,1*%
%TO.N,Net-(IC4--IN)*%
X159643000Y-129850000D03*
%TD*%
D17*
%TO.P,R22,1*%
%TO.N,Net-(J7-Pin_2)*%
X140754467Y-138377768D03*
D18*
%TO.P,R22,2*%
%TO.N,/PB7*%
X140754467Y-130757768D03*
%TD*%
D12*
%TO.P,C8,1*%
%TO.N,Net-(U3-VBST)*%
X153797232Y-87581233D03*
D13*
%TO.P,C8,2*%
%TO.N,Net-(U3-SW)*%
X153797232Y-82501234D03*
%TD*%
D33*
%TO.P,IC1,1,INPUT*%
%TO.N,+5V*%
X131581251Y-115549998D03*
D34*
%TO.P,IC1,2,GND*%
%TO.N,GND*%
X131581251Y-113009998D03*
%TO.P,IC1,3,OUTPUT*%
%TO.N,/Lab7_wifi/WIFI_3V3*%
X131581251Y-110469999D03*
%TD*%
D14*
%TO.P,TP5,1,1*%
%TO.N,GND*%
X119750000Y-111000000D03*
%TD*%
D17*
%TO.P,R4,1*%
%TO.N,/Lab7_power/140k*%
X177498780Y-64737300D03*
D18*
%TO.P,R4,2*%
%TO.N,GND*%
X177498780Y-72357300D03*
%TD*%
D12*
%TO.P,C19,1*%
%TO.N,GND*%
X161321751Y-118253001D03*
D13*
%TO.P,C19,2*%
%TO.N,Net-(IC4-+IN)*%
X166401750Y-118253001D03*
%TD*%
D17*
%TO.P,R16,1*%
%TO.N,Net-(IC4-~{SHUTDOWN})*%
X168700000Y-120850000D03*
D18*
%TO.P,R16,2*%
%TO.N,+5V*%
X176320000Y-120850000D03*
%TD*%
D17*
%TO.P,R21,1*%
%TO.N,+5V*%
X139690000Y-79400000D03*
D18*
%TO.P,R21,2*%
%TO.N,Net-(D3-A)*%
X147310000Y-79400000D03*
%TD*%
D35*
%TO.P,L1,1,1*%
%TO.N,Net-(U2-SW)*%
X166298780Y-64147300D03*
%TO.P,L1,2,2*%
%TO.N,+12V*%
X156900780Y-64147300D03*
%TD*%
D12*
%TO.P,C17,1*%
%TO.N,Net-(IC3-OUT)*%
X174199250Y-106535001D03*
D13*
%TO.P,C17,2*%
%TO.N,Net-(C17-Pad2)*%
X169119251Y-106535001D03*
%TD*%
D12*
%TO.P,C29,1*%
%TO.N,GND*%
X125657232Y-138205018D03*
D13*
%TO.P,C29,2*%
%TO.N,+5V*%
X125657232Y-133125019D03*
%TD*%
D22*
%TO.P,C11,1*%
%TO.N,+5V*%
X143700000Y-93400000D03*
D23*
%TO.P,C11,2*%
%TO.N,GND*%
X138620001Y-93400000D03*
%TD*%
D30*
%TO.P,SW3,1,1*%
%TO.N,GND*%
X126249999Y-91150000D03*
X126249999Y-84650000D03*
%TO.P,SW3,2,2*%
%TO.N,/PB3*%
X130750000Y-91150000D03*
X130749999Y-84649999D03*
%TD*%
D12*
%TO.P,C37,1*%
%TO.N,GND*%
X149765000Y-112600000D03*
D13*
%TO.P,C37,2*%
%TO.N,Net-(D1-K)*%
X149765000Y-107520001D03*
%TD*%
D17*
%TO.P,R9,1*%
%TO.N,Net-(R8-Pad2)*%
X167497232Y-79136233D03*
D18*
%TO.P,R9,2*%
%TO.N,/Lab7_power/123.9k*%
X167497232Y-86756233D03*
%TD*%
D12*
%TO.P,C26,1*%
%TO.N,+12V*%
X126267767Y-63735534D03*
%TO.P,C26,2*%
%TO.N,GND*%
X122732233Y-60200000D03*
%TD*%
D10*
%TO.P,H4,1,Hole*%
%TO.N,unconnected-(H4-Hole-Pad1)*%
X179300000Y-139560000D03*
%TD*%
D36*
%TO.P,U3,1,EN*%
%TO.N,Net-(U3-EN)*%
X162677233Y-86961233D03*
%TO.P,U3,2,VFB*%
%TO.N,/Lab7_power/123.9k*%
X162677233Y-85691233D03*
%TO.P,U3,3,VREG5*%
%TO.N,Net-(U3-VREG5)*%
X162677233Y-84421233D03*
%TO.P,U3,4,PG*%
%TO.N,Net-(U3-PG)*%
X162677233Y-83151233D03*
%TO.P,U3,5,GND*%
%TO.N,GND*%
X157117233Y-83151233D03*
%TO.P,U3,6,SW*%
%TO.N,Net-(U3-SW)*%
X157117233Y-84421233D03*
%TO.P,U3,7,VBST*%
%TO.N,Net-(U3-VBST)*%
X157117233Y-85691233D03*
%TO.P,U3,8,VIN*%
%TO.N,+15V*%
X157117233Y-86961233D03*
D37*
%TO.P,U3,9,GND*%
%TO.N,GND*%
X160499733Y-85831233D03*
X160499733Y-84281233D03*
X159294733Y-85831233D03*
X159294733Y-84281233D03*
%TD*%
D17*
%TO.P,R3,1*%
%TO.N,Net-(U3-PG)*%
X156087232Y-76956233D03*
D18*
%TO.P,R3,2*%
%TO.N,Net-(U3-VREG5)*%
X163707232Y-76956233D03*
%TD*%
D30*
%TO.P,SW2,1,1*%
%TO.N,GND*%
X126249998Y-101050001D03*
X126249998Y-94550001D03*
%TO.P,SW2,2,2*%
%TO.N,/PB2*%
X130749999Y-101050001D03*
X130749998Y-94550000D03*
%TD*%
D38*
%TO.P,C9,1*%
%TO.N,+12V*%
X152651882Y-62087298D03*
D23*
%TO.P,C9,2*%
%TO.N,GND*%
X149059780Y-58495196D03*
%TD*%
D27*
%TO.P,D2,1,K*%
%TO.N,GND*%
X145000000Y-73485826D03*
D28*
%TO.P,D2,2,A*%
%TO.N,Net-(D2-A)*%
X145000000Y-76025826D03*
%TD*%
D12*
%TO.P,C2,1*%
%TO.N,+15V*%
X175148132Y-59782299D03*
D13*
%TO.P,C2,2*%
%TO.N,GND*%
X170068133Y-59782299D03*
%TD*%
D12*
%TO.P,C24,1*%
%TO.N,GND*%
X178176251Y-97388393D03*
D13*
%TO.P,C24,2*%
%TO.N,+15V*%
X178176251Y-92308394D03*
%TD*%
D17*
%TO.P,R13,1*%
%TO.N,Net-(IC2-Pad1)*%
X173850000Y-130660000D03*
D18*
%TO.P,R13,2*%
%TO.N,GND*%
X173850000Y-123040000D03*
%TD*%
D17*
%TO.P,R5,1*%
%TO.N,+12V*%
X157568780Y-72247299D03*
D18*
%TO.P,R5,2*%
%TO.N,Net-(R5-Pad2)*%
X165188780Y-72247299D03*
%TD*%
D12*
%TO.P,C16,1*%
%TO.N,GND*%
X165878001Y-115176251D03*
D13*
%TO.P,C16,2*%
%TO.N,+3V3*%
X165878001Y-110096252D03*
%TD*%
D17*
%TO.P,R10,1*%
%TO.N,/Lab7_wifi/WIFI_3V3*%
X134681250Y-116890000D03*
D18*
%TO.P,R10,2*%
%TO.N,Net-(U4-Ch_PD)*%
X134681250Y-109270000D03*
%TD*%
D17*
%TO.P,IC2,1*%
%TO.N,Net-(IC2-Pad1)*%
X176390000Y-133484098D03*
%TO.P,IC2,2*%
%TO.N,+1V5*%
X173850000Y-133484098D03*
%TO.P,IC2,3*%
%TO.N,GND*%
X171310000Y-133484098D03*
%TD*%
D12*
%TO.P,C33,1*%
%TO.N,GND*%
X137727232Y-132992518D03*
D13*
%TO.P,C33,2*%
%TO.N,+5V*%
X137727232Y-138072517D03*
%TD*%
D12*
%TO.P,C31,1*%
%TO.N,+15V*%
X174204018Y-81132143D03*
%TO.P,C31,2*%
%TO.N,GND*%
X174204018Y-76132143D03*
%TD*%
%TO.P,C1,1*%
%TO.N,+15V*%
X157438482Y-93891233D03*
D13*
%TO.P,C1,2*%
%TO.N,GND*%
X162518481Y-93891233D03*
%TD*%
D14*
%TO.P,TP1,1,1*%
%TO.N,+15V*%
X166992233Y-75811233D03*
%TD*%
%TO.P,J3,1,Pin_1*%
%TO.N,+5V*%
X133520000Y-141300000D03*
D15*
%TO.P,J3,2,Pin_2*%
%TO.N,Net-(J3-Pin_2)*%
X130980000Y-141300000D03*
%TO.P,J3,3,Pin_3*%
%TO.N,Net-(J3-Pin_3)*%
X128440001Y-141300000D03*
%TO.P,J3,4,Pin_4*%
%TO.N,GND*%
X125900000Y-141300000D03*
%TD*%
D17*
%TO.P,R18,1*%
%TO.N,Net-(J3-Pin_2)*%
X130852232Y-138387768D03*
D18*
%TO.P,R18,2*%
%TO.N,Net-(U6-1B)*%
X130852232Y-130767768D03*
%TD*%
D14*
%TO.P,TP2,1,1*%
%TO.N,GND*%
X125550000Y-111000000D03*
%TD*%
%TO.P,TP6,1,1*%
%TO.N,Net-(IC3-OUT)*%
X177143000Y-106600001D03*
%TD*%
D12*
%TO.P,C27,1*%
%TO.N,GND*%
X169920001Y-86271874D03*
D13*
%TO.P,C27,2*%
%TO.N,+15V*%
X175000000Y-86271874D03*
%TD*%
D14*
%TO.P,LS1,1,1*%
%TO.N,/Lab7_Output/VO2*%
X168600000Y-126250000D03*
D19*
%TO.P,LS1,2,2*%
%TO.N,/Lab7_Output/VO1*%
X168600000Y-123710000D03*
%TD*%
D39*
%TO.P,U1,J1_1,+3.3V*%
%TO.N,+3V3*%
X155385000Y-107500000D03*
D40*
%TO.P,U1,J1_2,PB5*%
%TO.N,/PB5*%
X155385000Y-110040000D03*
%TO.P,U1,J1_3,PB0*%
%TO.N,/PB0*%
X155385000Y-112580000D03*
%TO.P,U1,J1_4,PB1*%
%TO.N,/PB1*%
X155385000Y-115119999D03*
%TO.P,U1,J1_5,PE4*%
%TO.N,/PE4*%
X155385000Y-117660000D03*
%TO.P,U1,J1_6,PE5*%
%TO.N,/PE5*%
X155385000Y-120200000D03*
%TO.P,U1,J1_7,PB4*%
%TO.N,/PB4*%
X155385000Y-122740000D03*
%TO.P,U1,J1_8,PA5*%
%TO.N,/PA5*%
X155385000Y-125280000D03*
%TO.P,U1,J1_9,PA6*%
%TO.N,/PA6*%
X155385000Y-127820001D03*
%TO.P,U1,J1_10,PA7*%
%TO.N,/PA7*%
X155385000Y-130360000D03*
%TO.P,U1,J2_1,GND*%
%TO.N,GND*%
X109665000Y-107500000D03*
%TO.P,U1,J2_2,PB2*%
%TO.N,/PB2*%
X109665000Y-110040000D03*
%TO.P,U1,J2_3,PE0*%
%TO.N,/PE0*%
X109665000Y-112580000D03*
%TO.P,U1,J2_4,PF0*%
%TO.N,unconnected-(U1-PF0-PadJ2_4)*%
X109665000Y-115119999D03*
%TO.P,U1,J2_5,~{TARGETRST}*%
%TO.N,unconnected-(U1-~{TARGETRST}-PadJ2_5)*%
X109665000Y-117660000D03*
%TO.P,U1,J2_6,PB7*%
%TO.N,/PB7*%
X109665000Y-120200000D03*
%TO.P,U1,J2_7,PB6*%
%TO.N,/PB6*%
X109665000Y-122740000D03*
%TO.P,U1,J2_8,PA4*%
%TO.N,/PA4*%
X109665000Y-125280000D03*
%TO.P,U1,J2_9,PA3*%
%TO.N,/PA3*%
X109665000Y-127820001D03*
%TO.P,U1,J2_10,PA2*%
%TO.N,/PA2*%
X109665000Y-130360000D03*
%TO.P,U1,J3_1,+VBUS*%
%TO.N,Net-(D1-K)*%
X152845000Y-107500000D03*
%TO.P,U1,J3_2,GND*%
%TO.N,GND*%
X152845000Y-110040000D03*
%TO.P,U1,J3_3,PD0*%
%TO.N,/PD0*%
X152845000Y-112580000D03*
%TO.P,U1,J3_4,PD1*%
%TO.N,/PD1*%
X152845000Y-115120000D03*
%TO.P,U1,J3_5,PD2*%
%TO.N,/PD2*%
X152845000Y-117660000D03*
%TO.P,U1,J3_6,PD3*%
%TO.N,/PD3*%
X152845000Y-120200000D03*
%TO.P,U1,J3_7,PE1*%
%TO.N,/PE1*%
X152845000Y-122740000D03*
%TO.P,U1,J3_8,PE2*%
%TO.N,/PE2*%
X152845000Y-125280000D03*
%TO.P,U1,J3_9,PE3*%
%TO.N,/PE3*%
X152845000Y-127820000D03*
%TO.P,U1,J3_10,PF1*%
%TO.N,unconnected-(U1-PF1-PadJ3_10)*%
X152845000Y-130360000D03*
%TO.P,U1,J4_1,PF2*%
%TO.N,unconnected-(U1-PF2-PadJ4_1)*%
X112205000Y-107500000D03*
%TO.P,U1,J4_2,PF3*%
%TO.N,unconnected-(U1-PF3-PadJ4_2)*%
X112205000Y-110040000D03*
%TO.P,U1,J4_3,PB3*%
%TO.N,/PB3*%
X112205000Y-112580000D03*
%TO.P,U1,J4_4,PC4*%
%TO.N,/PC4*%
X112205000Y-115120000D03*
%TO.P,U1,J4_5,PC5*%
%TO.N,/PC5*%
X112205000Y-117660000D03*
%TO.P,U1,J4_6,PC6*%
%TO.N,/PC6*%
X112205000Y-120200000D03*
%TO.P,U1,J4_7,PC7*%
%TO.N,/PC7*%
X112205000Y-122740000D03*
%TO.P,U1,J4_8,PD6*%
%TO.N,/PD6*%
X112205000Y-125280000D03*
%TO.P,U1,J4_9,PD7*%
%TO.N,/PD7*%
X112205000Y-127820000D03*
%TO.P,U1,J4_10,PF4*%
%TO.N,unconnected-(U1-PF4-PadJ4_10)*%
X112205000Y-130360000D03*
%TD*%
D41*
%TO.N,GND*%
X160000000Y-88050000D03*
X159994733Y-90091233D03*
X159700000Y-82100000D03*
D42*
X128952230Y-124337768D03*
D41*
X170450000Y-61700000D03*
X157450000Y-82050000D03*
%TO.N,+3V3*%
X142150000Y-97750000D03*
X138650000Y-97750000D03*
X150966000Y-114284000D03*
X116840000Y-87650000D03*
D42*
%TO.N,/PD1*%
X164850000Y-113100000D03*
X166750000Y-113100000D03*
%TO.N,/PD0*%
X163950000Y-112550000D03*
X168475000Y-113675000D03*
%TO.N,/PD3*%
X165020000Y-122370000D03*
%TO.N,Net-(IC4--IN)*%
X158000000Y-121767001D03*
X158000000Y-122967001D03*
%TO.N,/PC4*%
X106300000Y-111400000D03*
%TO.N,/PC6*%
X107450000Y-113950000D03*
%TO.N,/PB1*%
X141475000Y-93875000D03*
X157100000Y-113050000D03*
X143350000Y-95750000D03*
%TO.N,/PB0*%
X121750000Y-98350000D03*
X121750000Y-100000000D03*
X141550000Y-103100000D03*
X153300000Y-113900000D03*
X138900000Y-103100000D03*
%TO.N,/PA5*%
X108000000Y-82900000D03*
X105750000Y-82900000D03*
%TO.N,/PA7*%
X108000000Y-93750000D03*
X105150000Y-93850000D03*
%TO.N,/PA3*%
X108000000Y-85200000D03*
X105700000Y-85650000D03*
%TO.N,/PE4*%
X144100000Y-113775000D03*
%TO.N,/PE1*%
X144275000Y-116250000D03*
%TO.N,/PE5*%
X145000000Y-116900000D03*
%TO.N,/PA6*%
X105100000Y-90700000D03*
X108000000Y-90300000D03*
%TD*%
D43*
%TO.N,GND*%
X133243750Y-58243750D02*
X133500000Y-58500000D01*
X125900000Y-141300000D02*
X125900000Y-139800000D01*
D44*
X164613001Y-128113001D02*
X166335002Y-129835002D01*
D43*
X125700000Y-138247786D02*
X125657232Y-138205018D01*
X125700000Y-139600000D02*
X125700000Y-138247786D01*
D45*
X128952230Y-124337768D02*
X128952230Y-125214968D01*
D43*
X133500000Y-58500000D02*
X135040000Y-58500000D01*
X178175000Y-97389644D02*
X178176251Y-97388393D01*
D44*
X164613001Y-126600001D02*
X164613001Y-128113001D01*
D43*
X131735000Y-58243750D02*
X133243750Y-58243750D01*
X125900000Y-139800000D02*
X125700000Y-139600000D01*
D44*
X166335002Y-129835002D02*
X167899249Y-129835002D01*
D43*
X178175000Y-100342143D02*
X178175000Y-97389644D01*
D45*
%TO.N,+3V3*%
X175250000Y-113650000D02*
X172972999Y-113650000D01*
D44*
X133250000Y-92350000D02*
X138650000Y-97750000D01*
X154178000Y-108707000D02*
X154178000Y-110566902D01*
X113628747Y-94800003D02*
X115685000Y-92743750D01*
D45*
X172770000Y-121920000D02*
X176980000Y-121920000D01*
D44*
X154178000Y-110566902D02*
X153494902Y-111250000D01*
X141785000Y-125265000D02*
X140100000Y-126950000D01*
D45*
X176980000Y-121920000D02*
X178350000Y-120550000D01*
D44*
X140100000Y-126950000D02*
X134706250Y-126950000D01*
D45*
X178350000Y-120550000D02*
X178350000Y-116750000D01*
D44*
X150966000Y-112534000D02*
X150966000Y-114284000D01*
D46*
X133228483Y-125067769D02*
X130599431Y-125067769D01*
D44*
X133250000Y-89662000D02*
X133250000Y-92350000D01*
X134706250Y-126950000D02*
X133236251Y-125480001D01*
X169419251Y-110096252D02*
X169423000Y-110100001D01*
X153494902Y-111250000D02*
X152250000Y-111250000D01*
X115650000Y-86460000D02*
X115650000Y-78180004D01*
X152250000Y-111250000D02*
X150966000Y-112534000D01*
D46*
X130599431Y-125067769D02*
X130452232Y-125214968D01*
D45*
X172972999Y-113650000D02*
X169423000Y-110100001D01*
D44*
X116840000Y-87650000D02*
X115650000Y-86460000D01*
D46*
X133081284Y-125214968D02*
X133228483Y-125067769D01*
D43*
X169419251Y-110096253D02*
X169422999Y-110100001D01*
D44*
X115650000Y-78180004D02*
X111949999Y-74480003D01*
X131238000Y-87650000D02*
X133250000Y-89662000D01*
D45*
X171650000Y-123040000D02*
X172770000Y-121920000D01*
D44*
X150966000Y-114284000D02*
X150950000Y-114300000D01*
X146050000Y-97750000D02*
X142150000Y-97750000D01*
X149715000Y-125265000D02*
X141785000Y-125265000D01*
X155385000Y-107500000D02*
X155385000Y-107085000D01*
X111949999Y-94800003D02*
X113628747Y-94800003D01*
X155385000Y-107500000D02*
X154178000Y-108707000D01*
X116840000Y-87650000D02*
X131238000Y-87650000D01*
X165878001Y-110096252D02*
X169419251Y-110096252D01*
X155385000Y-107085000D02*
X146050000Y-97750000D01*
D45*
X178350000Y-116750000D02*
X175250000Y-113650000D01*
D44*
%TO.N,+5V*%
X168974551Y-119567501D02*
X168468499Y-119567501D01*
D43*
X143700000Y-93400000D02*
X140150000Y-96950000D01*
X122131232Y-134348768D02*
X123354981Y-133125019D01*
D44*
X170300000Y-120516000D02*
X170300000Y-123900000D01*
X164000000Y-111300000D02*
X164000000Y-109300000D01*
D43*
X133520000Y-138479749D02*
X133927232Y-138072517D01*
X131190000Y-122400000D02*
X129225000Y-120435000D01*
X137347233Y-141299999D02*
X137792232Y-140855000D01*
X137727232Y-138072517D02*
X133927232Y-138072517D01*
D45*
X139690000Y-79400000D02*
X139690000Y-80898998D01*
D46*
X130687232Y-128802768D02*
X130452232Y-128567768D01*
D45*
X156087232Y-74656234D02*
X150343766Y-74656234D01*
D43*
X144200000Y-90900000D02*
X143000000Y-90900000D01*
D44*
X164000000Y-109300000D02*
X158950000Y-104250000D01*
D43*
X143000000Y-90900000D02*
X142100000Y-90000000D01*
D44*
X167800000Y-118899001D02*
X167800000Y-115100000D01*
X163343001Y-125980501D02*
X163343001Y-126600001D01*
D43*
X140150000Y-96950000D02*
X140150000Y-106400000D01*
D44*
X163343001Y-129311252D02*
X162819251Y-129835002D01*
D43*
X142750000Y-109000000D02*
X142750000Y-117850000D01*
X142075000Y-87575000D02*
X142100000Y-87600000D01*
X123354981Y-133125019D02*
X125657232Y-133125019D01*
X144900000Y-91600000D02*
X144200000Y-90900000D01*
X142100000Y-86445679D02*
X143489446Y-85056233D01*
X140150000Y-106400000D02*
X142750000Y-109000000D01*
D44*
X168974551Y-119567501D02*
X169351501Y-119567501D01*
X169225000Y-124975000D02*
X164348502Y-124975000D01*
D43*
X142750000Y-117850000D02*
X138200000Y-122400000D01*
D44*
X158950000Y-104250000D02*
X155755001Y-104250000D01*
D43*
X133520000Y-141300000D02*
X133520000Y-138479749D01*
D45*
X150343766Y-74656234D02*
X145600000Y-79400000D01*
D43*
X146200000Y-94694999D02*
X152805001Y-101300000D01*
D46*
X132993482Y-128567768D02*
X133228482Y-128802768D01*
D43*
X137792232Y-138137517D02*
X137727232Y-138072517D01*
D44*
X169351501Y-119567501D02*
X170300000Y-120516000D01*
X163343001Y-126600001D02*
X163343001Y-129311252D01*
D43*
X146200000Y-93400000D02*
X146200000Y-94694999D01*
D45*
X143847234Y-85056232D02*
X143847234Y-85056233D01*
X168974551Y-119567501D02*
X175037501Y-119567501D01*
D44*
X170300000Y-123900000D02*
X169225000Y-124975000D01*
D46*
X133228482Y-128802768D02*
X130687232Y-128802768D01*
D43*
X144900000Y-93400000D02*
X144900000Y-91600000D01*
D45*
X175037501Y-119567501D02*
X176320000Y-120850000D01*
D43*
X131581251Y-115549998D02*
X131581251Y-118078749D01*
D44*
X164348502Y-124975000D02*
X163343001Y-125980501D01*
D43*
X120092232Y-134348768D02*
X122131232Y-134348768D01*
D45*
X139690000Y-80898998D02*
X143847234Y-85056232D01*
D43*
X142100000Y-90000000D02*
X142100000Y-87600000D01*
X142100000Y-87600000D02*
X142100000Y-86445679D01*
X137792232Y-140855000D02*
X137792232Y-138137517D01*
D44*
X167800000Y-115100000D02*
X164000000Y-111300000D01*
D43*
X138200000Y-122400000D02*
X131190000Y-122400000D01*
X143489446Y-85056233D02*
X143847234Y-85056233D01*
D44*
X155755001Y-104250000D02*
X152805001Y-101300000D01*
D43*
X144900000Y-93400000D02*
X146200000Y-93400000D01*
X131581251Y-118078749D02*
X129225000Y-120435000D01*
D45*
X145600000Y-79400000D02*
X139690000Y-79400000D01*
D43*
X139500000Y-87575000D02*
X142075000Y-87575000D01*
X143700000Y-93400000D02*
X144900000Y-93400000D01*
X133500000Y-141280000D02*
X133520000Y-141300000D01*
D44*
X168468499Y-119567501D02*
X167800000Y-118899001D01*
D43*
%TO.N,+15V*%
X157438482Y-93891233D02*
X157438483Y-90156233D01*
X170836251Y-91472143D02*
X174236251Y-91472143D01*
X165194732Y-96255268D02*
X165194732Y-96501233D01*
X167300000Y-91650000D02*
X167300000Y-94150000D01*
X175000000Y-81928125D02*
X174204018Y-81132143D01*
X165194731Y-96501233D02*
X160048482Y-96501233D01*
D45*
X172955883Y-80028117D02*
X174227767Y-81300000D01*
D43*
X175000000Y-86271874D02*
X175000000Y-81928125D01*
D45*
X166992233Y-75811233D02*
X168739000Y-75811233D01*
X159990000Y-96559715D02*
X160048482Y-96501233D01*
D43*
X178176251Y-92308394D02*
X175072502Y-92308394D01*
X172300000Y-87500000D02*
X170900000Y-88900000D01*
D45*
X172955883Y-80028116D02*
X172955883Y-80028117D01*
X159990000Y-98650000D02*
X159990000Y-96559715D01*
X168739000Y-75811233D02*
X172955883Y-80028116D01*
D43*
X174227767Y-81300000D02*
X174036161Y-81300000D01*
X178176251Y-89632143D02*
X178176251Y-89448125D01*
X160048482Y-96501233D02*
X157438482Y-93891233D01*
X178176251Y-92308394D02*
X178176251Y-89632143D01*
X175072502Y-92308394D02*
X174236251Y-91472143D01*
X157238483Y-89956233D02*
X157438483Y-90156233D01*
X170050000Y-88900000D02*
X167300000Y-91650000D01*
X174036161Y-81300000D02*
X172300000Y-83036161D01*
X172300000Y-83036161D02*
X172300000Y-87500000D01*
X154329732Y-89956233D02*
X157238483Y-89956233D01*
X167300000Y-94150000D02*
X165194732Y-96255268D01*
X170900000Y-88900000D02*
X170050000Y-88900000D01*
X178176251Y-89448125D02*
X175000000Y-86271874D01*
D44*
%TO.N,Net-(U3-VREG5)*%
X163569232Y-84421233D02*
X162677232Y-84421233D01*
X163707232Y-76956233D02*
X163707232Y-78699983D01*
X164083232Y-83907233D02*
X163569232Y-84421233D01*
X164083232Y-81588483D02*
X164083232Y-83907233D01*
X162450982Y-79956233D02*
X164083232Y-81588483D01*
X163707232Y-78699983D02*
X162450982Y-79956233D01*
%TO.N,Net-(U2-SW)*%
X172381882Y-66078551D02*
X172381882Y-64832302D01*
X172381882Y-64832302D02*
X171681880Y-64132300D01*
X174915631Y-68612300D02*
X172381882Y-66078551D01*
%TO.N,Net-(U2-CB)*%
X170681882Y-65082300D02*
X170681882Y-67766050D01*
X170681882Y-67766050D02*
X169835632Y-68612300D01*
D45*
%TO.N,+12V*%
X145931473Y-69394353D02*
X148800000Y-66525826D01*
D43*
X138800000Y-60900000D02*
X138800000Y-62258749D01*
X138011251Y-63200000D02*
X138876251Y-62335000D01*
X136988749Y-63200000D02*
X138011251Y-63200000D01*
X149569778Y-65281048D02*
X148800000Y-66050826D01*
X135565000Y-61776251D02*
X136988749Y-63200000D01*
D45*
X155559299Y-72247299D02*
X154432000Y-71120000D01*
D43*
X134017502Y-63323749D02*
X135565000Y-61776251D01*
D45*
X140521220Y-69394353D02*
X145931473Y-69394353D01*
X148800000Y-66525826D02*
X148800000Y-66050826D01*
D43*
X152656881Y-65281048D02*
X149569778Y-65281048D01*
X131323215Y-63735534D02*
X131735000Y-63323749D01*
D45*
X157568780Y-72247299D02*
X155559299Y-72247299D01*
D43*
X138800000Y-62258749D02*
X138876251Y-62335000D01*
D45*
X152656881Y-67312881D02*
X152656881Y-65281048D01*
D43*
X137580000Y-58500000D02*
X137580000Y-59680000D01*
X137580000Y-59680000D02*
X138800000Y-60900000D01*
X126267767Y-63735534D02*
X131323215Y-63735534D01*
D45*
X154432000Y-71120000D02*
X154432000Y-69088000D01*
D43*
X131735000Y-63323749D02*
X134017502Y-63323749D01*
D45*
X154432000Y-69088000D02*
X152656881Y-67312881D01*
D44*
%TO.N,Net-(U3-SW)*%
X157117232Y-84421233D02*
X155717231Y-84421233D01*
X155717231Y-84421233D02*
X153797232Y-82501234D01*
%TO.N,Net-(U3-VBST)*%
X157117232Y-85691233D02*
X155687232Y-85691233D01*
X155687232Y-85691233D02*
X153797232Y-87581233D01*
%TO.N,/Lab7_wifi/WIFI_3V3*%
X129301251Y-105570000D02*
X129301251Y-108189999D01*
X130502251Y-106771000D02*
X135734002Y-106771000D01*
X129301251Y-105570000D02*
X130502251Y-106771000D01*
X129301251Y-108189999D02*
X131581251Y-110469999D01*
X137750000Y-116900000D02*
X140290000Y-114360000D01*
X135734002Y-106771000D02*
X136925002Y-105580000D01*
D45*
%TO.N,Net-(C17-Pad2)*%
X167708001Y-106535001D02*
X166723001Y-107520001D01*
X169119251Y-106535002D02*
X167708001Y-106535001D01*
%TO.N,Net-(IC3-OUT)*%
X174199250Y-107863751D02*
X171963001Y-110100001D01*
X174199250Y-106535001D02*
X177078000Y-106535001D01*
X174199250Y-106535001D02*
X174199250Y-107863751D01*
X177078000Y-106535001D02*
X177143000Y-106600001D01*
%TO.N,Net-(C18-Pad2)*%
X159103002Y-107520001D02*
X159103001Y-109690001D01*
X160746253Y-110096253D02*
X162178001Y-110096253D01*
X160350001Y-109700001D02*
X160746253Y-110096253D01*
X159113001Y-109700001D02*
X160350001Y-109700001D01*
X159103001Y-109690001D02*
X159113001Y-109700001D01*
%TO.N,Net-(IC4-+IN)*%
X166401750Y-118253002D02*
X165296998Y-118253002D01*
X163343000Y-121176001D02*
X164613001Y-121176001D01*
X165296998Y-118253002D02*
X164613001Y-118936999D01*
X164613001Y-118936999D02*
X164613001Y-121176001D01*
%TO.N,Net-(IC2-Pad1)*%
X173850000Y-130944098D02*
X173850000Y-130660000D01*
X176390000Y-133484098D02*
X173850000Y-130944098D01*
%TO.N,+1V5*%
X172770000Y-129540000D02*
X174906999Y-129540000D01*
X171650000Y-131284098D02*
X171650000Y-130660000D01*
X173850000Y-133484098D02*
X171650000Y-131284098D01*
X174906999Y-129540000D02*
X176026999Y-130660000D01*
X171650000Y-130660000D02*
X172770000Y-129540000D01*
%TO.N,/PD1*%
X158517100Y-116350000D02*
X154650000Y-116350000D01*
X161267100Y-113600000D02*
X158517100Y-116350000D01*
X164100000Y-113600000D02*
X161267100Y-113600000D01*
X177043000Y-116443000D02*
X177043000Y-117720001D01*
X171350000Y-113100000D02*
X173000000Y-114750000D01*
X173000000Y-114750000D02*
X175350000Y-114750000D01*
X175350000Y-114750000D02*
X177043000Y-116443000D01*
X164600000Y-113100000D02*
X164100000Y-113600000D01*
X164850000Y-113100000D02*
X164600000Y-113100000D01*
X153420000Y-115120000D02*
X152845000Y-115120000D01*
X154650000Y-116350000D02*
X153420000Y-115120000D01*
X166750000Y-113100000D02*
X171350000Y-113100000D01*
%TO.N,/PD0*%
X163950000Y-112550000D02*
X160650000Y-112550000D01*
X169825000Y-113675000D02*
X171963000Y-115813000D01*
X171963000Y-115813000D02*
X171963000Y-117720001D01*
X160650000Y-112550000D02*
X159400000Y-113800000D01*
X168475000Y-113675000D02*
X169825000Y-113675000D01*
X159400000Y-113800000D02*
X154065000Y-113800000D01*
X154065000Y-113800000D02*
X152845000Y-112580000D01*
%TO.N,/PD3*%
X156970000Y-122370000D02*
X156100000Y-121500000D01*
X154145000Y-121500000D02*
X152845000Y-120200000D01*
X165020000Y-122370000D02*
X156970000Y-122370000D01*
X156100000Y-121500000D02*
X154145000Y-121500000D01*
%TO.N,Net-(IC4--IN)*%
X160819001Y-121176001D02*
X162073001Y-121176001D01*
X158000000Y-120443002D02*
X159043001Y-119400001D01*
X158000000Y-122967001D02*
X158000000Y-128257001D01*
X158000000Y-121767001D02*
X158000000Y-120443002D01*
X159043001Y-119400001D02*
X160819001Y-121176001D01*
X158000000Y-128257001D02*
X159643000Y-129900001D01*
X159113001Y-117320001D02*
X159113001Y-119330001D01*
X159113001Y-119330001D02*
X159043001Y-119400001D01*
%TO.N,Net-(D4-A)*%
X167610000Y-98650000D02*
X164500000Y-101760000D01*
X164500000Y-101760000D02*
X164500000Y-101850000D01*
%TO.N,Net-(IC4-~{SHUTDOWN})*%
X166209002Y-120850000D02*
X165883001Y-121176001D01*
X168700000Y-120850000D02*
X166209002Y-120850000D01*
%TO.N,/PE3*%
X152830000Y-127805000D02*
X152845000Y-127820000D01*
X149715000Y-127805000D02*
X152830000Y-127805000D01*
%TO.N,Net-(J3-Pin_3)*%
X128652233Y-138387768D02*
X128652233Y-141087768D01*
X128652233Y-141087768D02*
X128440001Y-141300000D01*
%TO.N,Net-(J3-Pin_2)*%
X130852232Y-141172232D02*
X130980000Y-141300000D01*
X130852232Y-138387768D02*
X130852232Y-141172232D01*
%TO.N,/PC5*%
X106850000Y-114300000D02*
X108950000Y-116400000D01*
X110945000Y-116400000D02*
X112205000Y-117660000D01*
X141650000Y-63800000D02*
X141650000Y-60750000D01*
X106850000Y-71567100D02*
X106850000Y-114300000D01*
X109916100Y-68501000D02*
X108333550Y-70083550D01*
X116916100Y-68501000D02*
X109916100Y-68501000D01*
X142660000Y-59740000D02*
X142660000Y-58500000D01*
X108333550Y-70083550D02*
X106850000Y-71567100D01*
X108950000Y-116400000D02*
X110945000Y-116400000D01*
X116916100Y-68501000D02*
X136949000Y-68501000D01*
X141650000Y-60750000D02*
X142660000Y-59740000D01*
X136949000Y-68501000D02*
X141650000Y-63800000D01*
%TO.N,/PC4*%
X116900000Y-68100000D02*
X136782900Y-68100000D01*
X141249000Y-60899000D02*
X140120001Y-59770001D01*
X136782900Y-68100000D02*
X141249000Y-63633900D01*
X141249000Y-63633900D02*
X141249000Y-60899000D01*
X140120001Y-59770001D02*
X140120001Y-58500000D01*
X106300000Y-111400000D02*
X106300000Y-71550000D01*
X106300000Y-71550000D02*
X109750000Y-68100000D01*
X109750000Y-68100000D02*
X116900000Y-68100000D01*
%TO.N,/PC6*%
X143400000Y-60300000D02*
X142700000Y-60300000D01*
X142051000Y-63966100D02*
X137115100Y-68902000D01*
X142051000Y-60949000D02*
X142051000Y-63966100D01*
X142700000Y-60300000D02*
X142051000Y-60949000D01*
X107450000Y-71534200D02*
X107450000Y-113950000D01*
X145200000Y-58500000D02*
X143400000Y-60300000D01*
X137115100Y-68902000D02*
X110082200Y-68902000D01*
X110082200Y-68902000D02*
X107450000Y-71534200D01*
%TO.N,Net-(U3-EN)*%
X165194732Y-88881233D02*
X163274732Y-86961233D01*
X167497232Y-88881233D02*
X165194732Y-88881233D01*
X163274732Y-86961233D02*
X162677232Y-86961233D01*
D44*
%TO.N,Net-(U3-PG)*%
X157422232Y-76956233D02*
X156087232Y-76956233D01*
X162677232Y-83151233D02*
X162677232Y-82211233D01*
X162677232Y-82211233D02*
X157422232Y-76956233D01*
D45*
%TO.N,/Lab7_power/140k*%
X175800000Y-65082300D02*
X176145000Y-64737300D01*
X177498780Y-68427046D02*
X175208780Y-70717046D01*
X177498780Y-64737300D02*
X177498780Y-68427046D01*
X174101882Y-65082300D02*
X175800000Y-65082300D01*
X175208780Y-70717046D02*
X175208780Y-72247299D01*
X176145000Y-64737300D02*
X177498780Y-64737300D01*
%TO.N,Net-(R5-Pad2)*%
X167588780Y-72247299D02*
X165188780Y-72247299D01*
%TO.N,/Lab7_power/123.9k*%
X162677232Y-85691232D02*
X164132232Y-85691233D01*
X167497232Y-86756233D02*
X165197232Y-86756233D01*
X164132232Y-85691233D02*
X165197232Y-86756233D01*
%TO.N,Net-(R8-Pad2)*%
X164900000Y-76539001D02*
X164900000Y-75849002D01*
X164900000Y-75849002D02*
X163707232Y-74656234D01*
X167497232Y-79136233D02*
X164900000Y-76539001D01*
%TO.N,/PB1*%
X130749999Y-81050002D02*
X132358002Y-81050002D01*
X156050000Y-105350000D02*
X157100000Y-106400000D01*
X132358002Y-81050002D02*
X134620000Y-83312000D01*
X134620000Y-89100000D02*
X136470000Y-90950000D01*
X154800000Y-105350000D02*
X156050000Y-105350000D01*
X138550000Y-90950000D02*
X141475000Y-93875000D01*
X157100000Y-106400000D02*
X157100000Y-113050000D01*
X145450000Y-96000000D02*
X154800000Y-105350000D01*
X136470000Y-90950000D02*
X138550000Y-90950000D01*
X143350000Y-95750000D02*
X143600000Y-96000000D01*
X134620000Y-83312000D02*
X134620000Y-89100000D01*
X143600000Y-96000000D02*
X145450000Y-96000000D01*
X130749998Y-74550001D02*
X130749999Y-81050002D01*
%TO.N,/PB2*%
X127750000Y-99350000D02*
X129450001Y-101050001D01*
X121500000Y-99350000D02*
X127750000Y-99350000D01*
X120100000Y-100750000D02*
X121500000Y-99350000D01*
X109665000Y-110040000D02*
X110905000Y-108800000D01*
X130749998Y-94550000D02*
X130749999Y-101050001D01*
X120100000Y-105850000D02*
X120100000Y-100750000D01*
X110905000Y-108800000D02*
X117150000Y-108800000D01*
X117150000Y-108800000D02*
X120100000Y-105850000D01*
X129450001Y-101050001D02*
X130749999Y-101050001D01*
%TO.N,/PB3*%
X119600000Y-100682900D02*
X119600000Y-104500000D01*
X108300000Y-110608126D02*
X109235874Y-111544000D01*
X119600000Y-104500000D02*
X118300000Y-105800000D01*
X111169000Y-111544000D02*
X112205000Y-112580000D01*
X128800000Y-97850000D02*
X127701000Y-98949000D01*
X128800000Y-91926000D02*
X128800000Y-97850000D01*
X129576000Y-91150000D02*
X128800000Y-91926000D01*
X127701000Y-98949000D02*
X121333900Y-98949000D01*
X109235874Y-111544000D02*
X111169000Y-111544000D01*
X108300000Y-107000000D02*
X108300000Y-110608126D01*
X109500000Y-105800000D02*
X108300000Y-107000000D01*
X118300000Y-105800000D02*
X109500000Y-105800000D01*
X130750000Y-91150000D02*
X129576000Y-91150000D01*
X121333900Y-98949000D02*
X119600000Y-100682900D01*
%TO.N,/PB0*%
X121750000Y-100000000D02*
X121750000Y-100750000D01*
X113630003Y-87180003D02*
X111949999Y-87180003D01*
X147900000Y-112950000D02*
X150050000Y-115100000D01*
X143650000Y-105200000D02*
X143650000Y-107200000D01*
X143650000Y-107200000D02*
X147900000Y-111450000D01*
X141550000Y-103100000D02*
X143650000Y-105200000D01*
X121750000Y-100750000D02*
X124100000Y-103100000D01*
X152548000Y-113900000D02*
X153300000Y-113900000D01*
X121750000Y-95300000D02*
X113630003Y-87180003D01*
X150050000Y-115100000D02*
X151348000Y-115100000D01*
X147900000Y-111450000D02*
X147900000Y-112950000D01*
X124100000Y-103100000D02*
X138900000Y-103100000D01*
X121750000Y-98350000D02*
X121750000Y-95300000D01*
X151348000Y-115100000D02*
X152548000Y-113900000D01*
%TO.N,/PA5*%
X153950000Y-136600000D02*
X157400000Y-133150000D01*
X102100000Y-86250000D02*
X102100000Y-133500000D01*
X105750000Y-82900000D02*
X105450000Y-82900000D01*
X157400000Y-127295000D02*
X155385000Y-125280000D01*
X105200000Y-136600000D02*
X153950000Y-136600000D01*
X111150002Y-82900000D02*
X108000000Y-82900000D01*
X157400000Y-133150000D02*
X157400000Y-127295000D01*
X102100000Y-133500000D02*
X105200000Y-136600000D01*
X105450000Y-82900000D02*
X102100000Y-86250000D01*
X111949999Y-82100003D02*
X111150002Y-82900000D01*
%TO.N,/PA7*%
X107100000Y-135500000D02*
X150250000Y-135500000D01*
X110460003Y-93750000D02*
X111949999Y-92260004D01*
X108000000Y-93750000D02*
X110460003Y-93750000D01*
X150650000Y-135100000D02*
X150650000Y-135095000D01*
X150650000Y-135095000D02*
X155385000Y-130360000D01*
X103950000Y-132350000D02*
X107100000Y-135500000D01*
X103950000Y-95050000D02*
X103950000Y-132350000D01*
X105150000Y-93850000D02*
X103950000Y-95050000D01*
X150250000Y-135500000D02*
X150650000Y-135100000D01*
%TO.N,/PA3*%
X108000000Y-85200000D02*
X108350000Y-85200000D01*
X105700000Y-85650000D02*
X105700000Y-125500000D01*
X108350000Y-85200000D02*
X108909997Y-84640003D01*
X108020001Y-127820001D02*
X109665000Y-127820001D01*
X105700000Y-125500000D02*
X108020001Y-127820001D01*
X108909997Y-84640003D02*
X111949999Y-84640003D01*
%TO.N,/PE0*%
X130350000Y-113800000D02*
X130820000Y-114270000D01*
X136600000Y-113125000D02*
X138985000Y-113125000D01*
X138985000Y-113125000D02*
X140290000Y-111820000D01*
X135455000Y-114270000D02*
X136600000Y-113125000D01*
X110885000Y-113800000D02*
X130350000Y-113800000D01*
X109665000Y-112580000D02*
X110885000Y-113800000D01*
X130820000Y-114270000D02*
X135455000Y-114270000D01*
D47*
%TO.N,/PB4*%
X144542232Y-130757768D02*
X148650000Y-126650000D01*
X148650000Y-126650000D02*
X153422770Y-126650000D01*
X154150000Y-124850000D02*
X155385000Y-123615000D01*
X154275000Y-123850000D02*
X155385000Y-122740000D01*
X153422770Y-126650000D02*
X154150000Y-125922770D01*
X129452231Y-125214968D02*
X129452231Y-124497769D01*
X155385000Y-123615000D02*
X155385000Y-122740000D01*
X130100000Y-123850000D02*
X154275000Y-123850000D01*
X129452231Y-124497769D02*
X130100000Y-123850000D01*
X154150000Y-125922770D02*
X154150000Y-124850000D01*
X143407233Y-130757768D02*
X144542232Y-130757768D01*
D45*
%TO.N,/PE4*%
X147950000Y-114175000D02*
X149575000Y-115800000D01*
X144100000Y-113775000D02*
X144500000Y-114175000D01*
X151500000Y-116450000D02*
X154175000Y-116450000D01*
X149575000Y-115800000D02*
X150850000Y-115800000D01*
X154175000Y-116450000D02*
X155385000Y-117660000D01*
X150850000Y-115800000D02*
X151500000Y-116450000D01*
X144500000Y-114175000D02*
X147950000Y-114175000D01*
%TO.N,/PE1*%
X148055000Y-117950000D02*
X152845000Y-122740000D01*
X144275000Y-116950000D02*
X145275000Y-117950000D01*
X145275000Y-117950000D02*
X148055000Y-117950000D01*
X144275000Y-116250000D02*
X144275000Y-116950000D01*
D47*
%TO.N,/PB7*%
X129952231Y-125214968D02*
X129952231Y-125947769D01*
X127300000Y-125650000D02*
X127300000Y-124100000D01*
X129500000Y-126400000D02*
X128050000Y-126400000D01*
X110915000Y-121450000D02*
X109665000Y-120200000D01*
X128050000Y-126400000D02*
X127300000Y-125650000D01*
X128050000Y-126400000D02*
X129050000Y-127400000D01*
X133900000Y-127400000D02*
X137257768Y-130757768D01*
X117300000Y-123350000D02*
X115400000Y-121450000D01*
X127300000Y-124100000D02*
X126550000Y-123350000D01*
X115400000Y-121450000D02*
X110915000Y-121450000D01*
X129050000Y-127400000D02*
X133900000Y-127400000D01*
X129952231Y-125947769D02*
X129500000Y-126400000D01*
X137257768Y-130757768D02*
X140350003Y-130757768D01*
X126550000Y-123350000D02*
X117300000Y-123350000D01*
D45*
%TO.N,/PE5*%
X150400000Y-116900000D02*
X152450000Y-118950000D01*
X152450000Y-118950000D02*
X154135000Y-118950000D01*
X154135000Y-118950000D02*
X155385000Y-120200000D01*
X145000000Y-116900000D02*
X150400000Y-116900000D01*
%TO.N,/PA6*%
X156550000Y-130950000D02*
X156550000Y-128985001D01*
X106933900Y-135901000D02*
X151599000Y-135901000D01*
X108000000Y-90300000D02*
X108579997Y-89720003D01*
X105100000Y-90700000D02*
X103549000Y-92251000D01*
X108579997Y-89720003D02*
X111949999Y-89720003D01*
X103549000Y-92251000D02*
X103549000Y-132516100D01*
X103549000Y-132516100D02*
X106933900Y-135901000D01*
X151599000Y-135901000D02*
X156550000Y-130950000D01*
X156550000Y-128985001D02*
X155385000Y-127820001D01*
%TO.N,Net-(JP1-C)*%
X127911232Y-128567768D02*
X128952230Y-128567768D01*
X126752233Y-127408769D02*
X127911232Y-128567768D01*
X125692232Y-127408769D02*
X126752233Y-127408769D01*
D43*
%TO.N,Net-(J2-Pin_1)*%
X178101251Y-102882143D02*
X175726251Y-102882143D01*
X170836251Y-101392143D02*
X174236251Y-101392143D01*
X175726251Y-102882143D02*
X174236251Y-101392143D01*
D45*
%TO.N,Net-(U6-1B)*%
X129952231Y-128567768D02*
X129952231Y-129867767D01*
X129952231Y-129867767D02*
X130852232Y-130767768D01*
%TO.N,Net-(U6-2B)*%
X129452231Y-128567768D02*
X129452231Y-129967770D01*
X129452231Y-129967770D02*
X128652233Y-130767768D01*
%TO.N,Net-(D2-A)*%
X142314647Y-77014353D02*
X143303174Y-76025826D01*
X143303174Y-76025826D02*
X145000000Y-76025826D01*
X140521220Y-77014353D02*
X142314647Y-77014353D01*
%TO.N,Net-(D3-A)*%
X149610000Y-77100000D02*
X150460000Y-77100000D01*
X147310000Y-79400000D02*
X149610000Y-77100000D01*
D43*
%TO.N,Net-(D1-K)*%
X145476251Y-104335000D02*
X145476251Y-106938752D01*
X149757500Y-107527501D02*
X149765000Y-107520001D01*
X145441251Y-104300000D02*
X145476251Y-104335000D01*
X149765000Y-107520001D02*
X152824999Y-107520001D01*
X145476251Y-106938752D02*
X146065000Y-107527501D01*
X145476251Y-104335000D02*
X145476251Y-101591250D01*
X145476251Y-101591250D02*
X145185001Y-101300000D01*
X152824999Y-107520001D02*
X152845000Y-107500000D01*
X146065000Y-107527501D02*
X149757500Y-107527501D01*
D45*
%TO.N,/Lab7_Output/VO1*%
X162100000Y-127700000D02*
X162100000Y-126627000D01*
X162073001Y-125126999D02*
X162073001Y-126600001D01*
X159043001Y-127020001D02*
X160379999Y-127020001D01*
X160379999Y-127020001D02*
X160799999Y-126600001D01*
X161300000Y-136757000D02*
X161300000Y-128500000D01*
X168600000Y-123710000D02*
X163490000Y-123710000D01*
X160799999Y-126600001D02*
X162073001Y-126600001D01*
X161300000Y-128500000D02*
X162100000Y-127700000D01*
X163490000Y-123710000D02*
X162073001Y-125126999D01*
X162100000Y-126627000D02*
X162073001Y-126600001D01*
X164143000Y-139600000D02*
X161300000Y-136757000D01*
%TO.N,Net-(J7-Pin_2)*%
X140754467Y-139395533D02*
X139887233Y-140262767D01*
X140754467Y-138377768D02*
X140754467Y-139395533D01*
X139887233Y-140262767D02*
X139887233Y-141299999D01*
%TO.N,Net-(J7-Pin_3)*%
X142987233Y-138377768D02*
X142987233Y-139712767D01*
X142987233Y-139712767D02*
X142427232Y-140272768D01*
X142427232Y-140272768D02*
X142427232Y-141299999D01*
%TO.N,/Lab7_Output/VO2*%
X168600000Y-126250000D02*
X168550000Y-126250000D01*
X168600000Y-126250000D02*
X169143000Y-126793000D01*
X169143000Y-126793000D02*
X169143000Y-134600000D01*
X168199999Y-126600001D02*
X165883001Y-126600001D01*
X168550000Y-126250000D02*
X168199999Y-126600001D01*
%TD*%
%TA.AperFunction,Conductor*%
%TO.N,+12V*%
G36*
X152670551Y-60481962D02*
G01*
X152678003Y-60485021D01*
X155050000Y-61550000D01*
X155050000Y-61549999D01*
X155050001Y-61550000D01*
X155050623Y-61549999D01*
X155407098Y-61549464D01*
X155474165Y-61569048D01*
X155494962Y-61585782D01*
X155503780Y-61594600D01*
X155503781Y-61594600D01*
X158529380Y-61594600D01*
X158596419Y-61614285D01*
X158642174Y-61667089D01*
X158653380Y-61718600D01*
X158653380Y-66525907D01*
X158633695Y-66592946D01*
X158580891Y-66638701D01*
X158529287Y-66649907D01*
X155066902Y-66647312D01*
X155027881Y-66640981D01*
X153250001Y-66050000D01*
X153250000Y-66050000D01*
X151125541Y-66050000D01*
X151058502Y-66030315D01*
X151012747Y-65977511D01*
X151001550Y-65924469D01*
X151049377Y-62050463D01*
X151069888Y-61983672D01*
X151085687Y-61964313D01*
X151505400Y-61544600D01*
X152539538Y-60510461D01*
X152600859Y-60476978D01*
X152670551Y-60481962D01*
G37*
%TD.AperFunction*%
%TD*%
%TA.AperFunction,Conductor*%
%TO.N,GND*%
G36*
X158553151Y-78869685D02*
G01*
X158573793Y-78886319D01*
X158588526Y-78901052D01*
X158598700Y-78912573D01*
X161276087Y-82352640D01*
X161301728Y-82417634D01*
X161302232Y-82428800D01*
X161302232Y-86806233D01*
X161300558Y-88489058D01*
X161860942Y-89050000D01*
X163013874Y-89050000D01*
X163080913Y-89069685D01*
X163101555Y-89086319D01*
X163563681Y-89548445D01*
X163597166Y-89609768D01*
X163600000Y-89636126D01*
X163600000Y-90691158D01*
X163580315Y-90758197D01*
X163563581Y-90778939D01*
X163117369Y-91224132D01*
X163056008Y-91257547D01*
X163029505Y-91260351D01*
X159663406Y-91252659D01*
X159596411Y-91232821D01*
X159575986Y-91216319D01*
X158588563Y-90228363D01*
X158555096Y-90167031D01*
X158557293Y-90105768D01*
X158565355Y-90078313D01*
X158565355Y-90078310D01*
X158565357Y-90078305D01*
X158577733Y-89992233D01*
X158577733Y-86580233D01*
X158570751Y-86515292D01*
X158559545Y-86463781D01*
X158548587Y-86425575D01*
X158510378Y-86360244D01*
X158493417Y-86297354D01*
X158499647Y-83650000D01*
X156074000Y-83650000D01*
X156006961Y-83630315D01*
X155961206Y-83577511D01*
X155950000Y-83526000D01*
X155950000Y-79551362D01*
X155969685Y-79484323D01*
X155986319Y-79463681D01*
X156563681Y-78886319D01*
X156625004Y-78852834D01*
X156651362Y-78850000D01*
X158486112Y-78850000D01*
X158553151Y-78869685D01*
G37*
%TD.AperFunction*%
%TD*%
%TA.AperFunction,Conductor*%
%TO.N,GND*%
G36*
X170603177Y-58719685D02*
G01*
X170623819Y-58736319D01*
X171113681Y-59226181D01*
X171147166Y-59287504D01*
X171150000Y-59313862D01*
X171150000Y-60750002D01*
X171842891Y-62707254D01*
X171850000Y-62748635D01*
X171850000Y-63322905D01*
X171830315Y-63389944D01*
X171777511Y-63435699D01*
X171708353Y-63445643D01*
X171680932Y-63437917D01*
X171680929Y-63437929D01*
X171680638Y-63437834D01*
X171676977Y-63436803D01*
X171675478Y-63436158D01*
X171617287Y-63417251D01*
X171617288Y-63417251D01*
X171546482Y-63406037D01*
X171522882Y-63402299D01*
X171522881Y-63402299D01*
X169888760Y-63402299D01*
X169821721Y-63382614D01*
X169775966Y-63329810D01*
X169771714Y-63318233D01*
X169771490Y-63318313D01*
X169770131Y-63314486D01*
X169749843Y-63267387D01*
X169749842Y-63267384D01*
X169708958Y-63198828D01*
X169638222Y-63109314D01*
X169533592Y-62976908D01*
X169507472Y-62912104D01*
X169506882Y-62900027D01*
X169506882Y-62724999D01*
X168979345Y-60785057D01*
X168975000Y-60752519D01*
X168975000Y-59335737D01*
X168994685Y-59268698D01*
X169011319Y-59248056D01*
X169523056Y-58736319D01*
X169584379Y-58702834D01*
X169610737Y-58700000D01*
X170536138Y-58700000D01*
X170603177Y-58719685D01*
G37*
%TD.AperFunction*%
%TD*%
%TA.AperFunction,Conductor*%
%TO.N,+15V*%
G36*
X175740677Y-58844685D02*
G01*
X175761319Y-58861319D01*
X176063681Y-59163681D01*
X176097166Y-59225004D01*
X176100000Y-59251362D01*
X176100000Y-61338651D01*
X176080375Y-61405597D01*
X175251882Y-62697296D01*
X175251980Y-64363887D01*
X175232299Y-64430927D01*
X175179498Y-64476685D01*
X175110340Y-64486633D01*
X175087025Y-64480935D01*
X175026433Y-64459733D01*
X175026431Y-64459732D01*
X174995158Y-64456800D01*
X174995154Y-64456800D01*
X173208610Y-64456800D01*
X173208606Y-64456800D01*
X173177332Y-64459732D01*
X173177330Y-64459732D01*
X173116837Y-64480901D01*
X173047058Y-64484464D01*
X172986431Y-64449735D01*
X172954203Y-64387742D01*
X172951882Y-64363860D01*
X172951882Y-62743080D01*
X172970948Y-62677018D01*
X174200000Y-60725000D01*
X174200000Y-59232612D01*
X174219685Y-59165573D01*
X174236319Y-59144931D01*
X174519931Y-58861319D01*
X174581254Y-58827834D01*
X174607612Y-58825000D01*
X175673638Y-58825000D01*
X175740677Y-58844685D01*
G37*
%TD.AperFunction*%
%TD*%
%TA.AperFunction,Conductor*%
%TO.N,+15V*%
G36*
X158215272Y-86475918D02*
G01*
X158261027Y-86528722D01*
X158272233Y-86580233D01*
X158272233Y-89992233D01*
X158252548Y-90059272D01*
X158199744Y-90105027D01*
X158148233Y-90116233D01*
X156086232Y-90116233D01*
X156019193Y-90096548D01*
X155973438Y-90043744D01*
X155962232Y-89992233D01*
X155962232Y-86580233D01*
X155981917Y-86513194D01*
X156034721Y-86467439D01*
X156086232Y-86456233D01*
X158148233Y-86456233D01*
X158215272Y-86475918D01*
G37*
%TD.AperFunction*%
%TD*%
%TA.AperFunction,Conductor*%
%TO.N,Net-(U2-SW)*%
G36*
X168062126Y-61613507D02*
G01*
X168081608Y-61632217D01*
X168640364Y-62339299D01*
X169469264Y-63388240D01*
X169489554Y-63435345D01*
X169491661Y-63449805D01*
X169491661Y-63449807D01*
X169491662Y-63449809D01*
X169544870Y-63558647D01*
X169630535Y-63644312D01*
X169739373Y-63697520D01*
X169809933Y-63707800D01*
X171522882Y-63707799D01*
X171581073Y-63726706D01*
X171617037Y-63776206D01*
X171621882Y-63806799D01*
X171621882Y-64457800D01*
X171602975Y-64515991D01*
X171553475Y-64551955D01*
X171522882Y-64556800D01*
X169809938Y-64556800D01*
X169809930Y-64556801D01*
X169739377Y-64567078D01*
X169739367Y-64567081D01*
X169630538Y-64620285D01*
X169544869Y-64705954D01*
X169491661Y-64814792D01*
X169491661Y-64814794D01*
X169488463Y-64836742D01*
X169468150Y-64883877D01*
X168061610Y-66662410D01*
X168010683Y-66696324D01*
X167983958Y-66700000D01*
X164645180Y-66700000D01*
X164586989Y-66681093D01*
X164551025Y-66631593D01*
X164546180Y-66601000D01*
X164546180Y-61693600D01*
X164565087Y-61635409D01*
X164614587Y-61599445D01*
X164645180Y-61594600D01*
X168003935Y-61594600D01*
X168062126Y-61613507D01*
G37*
%TD.AperFunction*%
%TD*%
%TA.AperFunction,Conductor*%
%TO.N,Net-(U3-SW)*%
G36*
X151632806Y-83506736D02*
G01*
X155827699Y-83885988D01*
X155872728Y-83898950D01*
X155920889Y-83923439D01*
X155987928Y-83943124D01*
X156074000Y-83955500D01*
X158069134Y-83955500D01*
X158136173Y-83975185D01*
X158181928Y-84027989D01*
X158193134Y-84079792D01*
X158191433Y-84802525D01*
X158171590Y-84869518D01*
X158118679Y-84915148D01*
X158067433Y-84926233D01*
X156189416Y-84926233D01*
X155588851Y-85147146D01*
X155583559Y-85149092D01*
X155474747Y-85178249D01*
X155422866Y-85208202D01*
X155412879Y-85211876D01*
X155412875Y-85211876D01*
X151642958Y-86598609D01*
X151600150Y-86606233D01*
X149796233Y-86606233D01*
X149729194Y-86586548D01*
X149683439Y-86533744D01*
X149672233Y-86482233D01*
X149672233Y-83630233D01*
X149691918Y-83563194D01*
X149744722Y-83517439D01*
X149796233Y-83506233D01*
X151621642Y-83506233D01*
X151632806Y-83506736D01*
G37*
%TD.AperFunction*%
%TD*%
M02*
